<?xml version="1.0" standalone="no"?>
<!DOCTYPE svg PUBLIC "-//W3C//DTD SVG 20010904//EN"
 "http://www.w3.org/TR/2001/REC-SVG-20010904/DTD/svg10.dtd">
<svg version="1.0" xmlns="http://www.w3.org/2000/svg"
 width="250.000000pt" height="400.000000pt" viewBox="0 0 250.000000 400.000000"
 preserveAspectRatio="xMidYMid meet">
<metadata>
Created by potrace 1.16, written by Peter Selinger 2001-2019
</metadata>
<g transform="translate(0.000000,400.000000) scale(0.100000,-0.100000)"
fill="#000000" stroke="none">
<path d="M1124 3731 c7 -11 -18 -21 -54 -21 -16 0 -31 -4 -34 -9 -4 -5 -29
-12 -56 -16 -27 -4 -52 -10 -55 -15 -3 -4 -27 -13 -55 -20 -27 -7 -50 -16 -50
-20 0 -5 -13 -11 -30 -15 -16 -4 -30 -10 -30 -15 0 -5 -15 -13 -33 -19 -18 -6
-53 -28 -78 -49 -26 -20 -56 -44 -68 -52 -11 -8 -21 -18 -21 -21 0 -4 -26 -34
-58 -67 -72 -76 -102 -111 -102 -122 0 -5 -13 -29 -30 -53 -16 -25 -30 -52
-30 -60 0 -8 -6 -20 -14 -26 -8 -7 -18 -26 -21 -43 -5 -23 -9 -27 -16 -17 -6
9 -8 0 -7 -28 1 -24 -6 -52 -15 -67 -15 -22 -17 -59 -17 -280 0 -140 4 -257 9
-260 9 -6 25 -64 22 -83 -1 -7 2 -13 8 -13 5 0 12 -13 16 -30 4 -17 10 -30 15
-30 4 0 11 -12 15 -27 3 -14 15 -38 26 -51 10 -14 19 -29 19 -34 0 -5 9 -19
21 -31 11 -12 27 -33 34 -47 7 -14 32 -45 54 -69 23 -24 41 -50 41 -58 0 -8 4
-12 9 -9 4 3 30 -14 57 -39 27 -25 52 -45 55 -45 3 0 16 -9 29 -20 13 -11 29
-20 37 -20 7 0 13 -7 13 -15 0 -8 8 -15 18 -15 9 0 32 -9 50 -20 18 -11 39
-20 46 -20 7 0 19 -6 25 -14 6 -7 29 -16 51 -20 l40 -6 1 -163 c0 -89 2 -175
4 -192 2 -16 8 -160 15 -320 27 -717 23 -667 54 -708 30 -40 67 -67 91 -67 8
0 24 -9 35 -20 18 -18 33 -20 140 -20 107 0 123 2 142 20 12 11 30 20 39 20
10 0 21 5 24 10 3 6 13 10 22 10 17 0 82 68 83 87 0 6 4 13 10 15 14 5 16 281
1 286 -6 2 -11 13 -11 23 0 11 5 17 10 14 6 -3 10 -1 10 4 0 6 -4 11 -9 11 -4
0 -11 179 -15 397 -4 219 -9 447 -11 506 l-4 108 27 10 c15 6 45 19 67 29 22
10 50 21 63 25 12 3 22 11 22 16 0 5 6 9 14 9 7 0 30 15 50 33 20 17 61 52 91
77 30 25 55 48 55 53 0 4 18 26 41 50 63 64 69 72 69 89 0 9 7 21 15 28 9 7
27 37 41 66 14 30 29 56 33 59 5 2 12 24 16 47 6 36 8 40 16 23 8 -17 9 -16 4
6 -2 14 4 50 15 80 18 47 20 79 20 271 0 120 -4 218 -9 218 -5 0 -11 10 -14
23 -19 82 -41 154 -51 167 -6 8 -22 35 -36 60 -13 25 -40 70 -61 101 -21 31
-35 59 -32 63 4 3 1 6 -6 6 -7 0 -57 44 -112 99 -55 54 -117 107 -137 117 -20
11 -40 24 -44 30 -4 7 -24 15 -43 18 -19 4 -35 11 -35 15 0 5 -21 14 -47 21
-27 7 -53 17 -60 22 -6 5 -33 13 -60 18 -78 14 -145 35 -137 43 4 4 -50 7
-120 7 -72 0 -125 -4 -122 -9z m251 -236 c135 -26 224 -63 335 -138 237 -163
367 -458 332 -755 -52 -448 -482 -774 -918 -698 -216 37 -392 143 -518 311
-48 63 -72 107 -119 215 -46 105 -56 310 -23 455 72 312 337 560 651 609 120
19 165 19 260 1z m134 -1767 c8 -21 19 -319 37 -1058 6 -247 6 -256 -14 -280
-42 -51 -46 -26 -50 337 -2 186 -9 482 -16 658 -7 176 -9 330 -4 343 4 12 14
22 23 22 8 0 19 -10 24 -22z m-379 -16 c20 -16 23 -30 26 -98 2 -43 8 -187 14
-319 17 -362 27 -897 18 -923 -6 -18 -14 -23 -35 -20 -47 5 -65 45 -74 160
-10 122 -29 1176 -22 1194 4 11 18 18 44 23 4 0 17 -7 29 -17z"/>
<path d="M733 3200 c-125 -124 -203 -316 -203 -496 1 -193 71 -369 203 -502
61 -63 85 -78 99 -64 7 7 -4 26 -34 59 -53 56 -68 82 -68 116 0 29 14 43 53
52 39 10 91 75 118 148 19 50 23 81 23 162 -1 138 -28 220 -95 287 -31 31 -57
48 -72 48 -13 0 -32 9 -41 19 -25 28 -13 69 40 137 24 32 44 61 44 66 0 19
-31 5 -67 -32z"/>
<path d="M1877 2810 c-14 -11 -31 -36 -37 -56 -16 -49 9 -118 51 -140 29 -15
31 -14 64 19 27 27 35 43 35 70 0 49 -18 93 -45 111 -31 20 -37 20 -68 -4z"/>
</g>
</svg>
