<?xml version="1.0" standalone="no"?>
<!DOCTYPE svg PUBLIC "-//W3C//DTD SVG 20010904//EN"
 "http://www.w3.org/TR/2001/REC-SVG-20010904/DTD/svg10.dtd">
<svg version="1.0" xmlns="http://www.w3.org/2000/svg"
 width="250.000000pt" height="400.000000pt" viewBox="0 0 250.000000 400.000000"
 preserveAspectRatio="xMidYMid meet">
<metadata>
Created by potrace 1.16, written by Peter Selinger 2001-2019
</metadata>
<g transform="translate(0.000000,400.000000) scale(0.100000,-0.100000)"
fill="#000000" stroke="none">
<path d="M1135 3678 c-206 -20 -406 -114 -565 -264 -162 -155 -252 -326 -298
-569 -25 -131 -18 -262 18 -380 44 -141 57 -175 82 -218 15 -26 28 -50 28 -53
0 -16 104 -147 160 -201 109 -106 280 -209 379 -229 18 -4 38 -16 45 -28 10
-16 16 -131 25 -446 6 -234 16 -535 21 -668 11 -283 11 -284 115 -324 51 -19
77 -23 168 -22 101 1 111 3 174 35 108 54 104 37 93 425 -6 181 -11 486 -12
678 -3 301 -1 350 12 357 8 5 54 26 102 48 223 102 422 330 496 571 39 126 47
183 46 325 -1 111 -6 156 -23 220 -55 197 -123 318 -260 459 -98 100 -178 156
-301 208 -168 72 -319 94 -505 76z m237 -183 c138 -26 226 -62 338 -138 180
-124 306 -335 332 -558 71 -602 -512 -1065 -1077 -854 -186 70 -359 226 -438
396 -50 107 -56 126 -72 219 -33 186 3 392 97 547 94 155 238 278 408 348 54
22 194 49 272 53 31 2 94 -4 140 -13z m137 -1767 c8 -21 19 -333 37 -1058 6
-247 6 -256 -14 -280 -42 -51 -46 -26 -50 337 -2 186 -9 482 -16 658 -7 176
-9 330 -4 343 4 12 14 22 23 22 8 0 19 -10 24 -22z m-379 -16 c20 -16 23 -30
26 -98 2 -43 8 -187 14 -319 17 -362 27 -897 18 -923 -11 -31 -54 -26 -81 10
-27 37 -34 133 -41 598 -4 212 -9 460 -12 551 -5 146 -3 168 11 183 21 21 37
20 65 -2z"/>
<path d="M733 3200 c-166 -166 -241 -437 -184 -662 36 -141 92 -243 184 -336
61 -63 85 -78 99 -64 7 7 -4 26 -34 59 -53 56 -68 82 -68 116 0 29 14 43 53
52 39 10 91 75 118 148 19 50 23 81 23 162 -1 138 -28 220 -95 287 -31 31 -57
48 -72 48 -13 0 -32 9 -41 19 -25 28 -13 69 40 137 24 32 44 61 44 66 0 19
-31 5 -67 -32z"/>
<path d="M1877 2810 c-14 -11 -31 -36 -37 -56 -16 -49 9 -118 51 -140 29 -15
31 -14 64 19 27 27 35 43 35 70 0 49 -18 93 -45 111 -31 20 -37 20 -68 -4z"/>
</g>
</svg>
